<svg xmlns="http://www.w3.org/2000/svg" xmlns:xlink="http://www.w3.org/1999/xlink" version="1.1" x="0px" y="0px" viewBox="0 0 40 37.5" enable-background="new 0 0 40 30" xml:space="preserve"><g><g><path fill="#000000" d="M20,28c0.553,0,1,0.447,1,1l0,0c0,0.553-0.447,1-1,1l0,0H0.998C0.447,30,0,29.553,0,29l0,0    c0-0.553,0.447-1,0.998-1l0,0H20L20,28z"/></g><g><path fill="#000000" d="M1,2C0.447,2,0,1.553,0,1l0,0c0-0.553,0.447-1,1-1l0,0h24c0.551,0,0.998,0.447,0.998,1l0,0    c0,0.553-0.447,1-0.998,1l0,0H1L1,2z"/></g><g><path fill="#000000" d="M39,14c0.553,0,1,0.448,1,1l0,0c0,0.552-0.447,1-1,1l0,0L0.998,16.001C0.447,16.001,0,15.553,0,15l0,0    c0-0.553,0.447-1,0.998-1l0,0H39L39,14z"/></g><g><path fill="#000000" d="M1,9.001C0.447,9.001,0,8.553,0,8l0,0c0-0.552,0.447-1,1-1l0,0h24c0.551,0,0.998,0.448,0.998,1l0,0    c0,0.553-0.447,1.001-0.998,1.001l0,0H1L1,9.001z"/></g><g><path fill="#000000" d="M39,21c0.553,0,1,0.447,1,1l0,0c0,0.553-0.447,1-1,1l0,0L0.998,23.001c-0.551,0-0.998-0.448-0.998-1l0,0    C0,21.448,0.447,21,0.998,21l0,0H39L39,21z"/></g><path fill="#000000" d="M31,0.901c0-0.497,0.402-0.9,0.9-0.9H39.1c0.498,0,0.9,0.403,0.9,0.9v7.2c0,0.497-0.402,0.9-0.9,0.9H31.9   c-0.498,0-0.9-0.403-0.9-0.9V0.901z"/></g><text x="0" y="45" fill="#000000" font-size="5px" font-weight="bold" font-family="'Helvetica Neue', Helvetica, Arial-Unicode, Arial, Sans-serif">Created by Andrea Greco</text><text x="0" y="50" fill="#000000" font-size="5px" font-weight="bold" font-family="'Helvetica Neue', Helvetica, Arial-Unicode, Arial, Sans-serif">from the Noun Project</text></svg>