<svg xmlns="http://www.w3.org/2000/svg" xmlns:xlink="http://www.w3.org/1999/xlink" version="1.1" x="0px" y="0px" viewBox="0 0 95 118.75" enable-background="new 0 0 95 95" xml:space="preserve"><g><polygon points="67.102,45.372 67.102,57.34 77.598,63.322 77.598,39.388  "/><circle cx="26.809" cy="22.27" r="8.591"/><circle cx="50.375" cy="18.207" r="12.654"/><path d="M41.275,42.647c-4.711,0-8.541,3.832-8.541,8.545c0,4.711,3.83,8.542,8.541,8.542s8.545-3.831,8.545-8.542   C49.82,46.479,45.986,42.647,41.275,42.647z M41.275,58.706c-4.15,0-7.516-3.363-7.516-7.514c0-4.152,3.365-7.517,7.516-7.517   c4.152,0,7.518,3.364,7.518,7.517C48.793,55.343,45.428,58.706,41.275,58.706z"/><path d="M44.348,50.422l-4.09-1.942c-0.77-0.366-1.4,0.033-1.4,0.886v3.448c0,0.853,0.631,1.25,1.4,0.885l4.09-1.943   C45.119,51.388,45.119,50.789,44.348,50.422z"/><path d="M58.85,34.299H22.902c-3.035,0-5.5,2.465-5.5,5.503V62.91c0,3.038,2.465,5.503,5.5,5.503H33.51L21.445,85.732   c-0.824,1.186-0.334,2.699,1.092,3.383c1.43,0.684,3.258,0.278,4.084-0.905l13.787-19.797h0.434L54.629,88.21   c0.826,1.184,2.652,1.589,4.08,0.905s1.918-2.197,1.092-3.383L47.738,68.413H58.85c3.037,0,5.502-2.465,5.502-5.503V39.802   C64.352,36.764,61.887,34.299,58.85,34.299z M41.275,60.692c-5.238,0-9.5-4.264-9.5-9.5c0-5.239,4.262-9.502,9.5-9.502   c5.24,0,9.5,4.263,9.5,9.502C50.775,56.429,46.516,60.692,41.275,60.692z"/></g><text x="0" y="110" fill="#000000" font-size="5px" font-weight="bold" font-family="'Helvetica Neue', Helvetica, Arial-Unicode, Arial, Sans-serif">Created by Guilherme Furtado</text><text x="0" y="115" fill="#000000" font-size="5px" font-weight="bold" font-family="'Helvetica Neue', Helvetica, Arial-Unicode, Arial, Sans-serif">from the Noun Project</text></svg>